<svg data-v-0dd9719b="" version="1.0" xmlns="http://www.w3.org/2000/svg" xmlns:xlink="http://www.w3.org/1999/xlink" width="100%" height="100%" viewBox="0 0 340.000000 250.000000" preserveAspectRatio="xMidYMid meet" color-interpolation-filters="sRGB" style="margin: auto;"> <rect data-v-0dd9719b="" x="0" y="0" width="100%" height="100%" fill="#fff" fill-opacity="1" class="background"></rect> <rect data-v-0dd9719b="" x="0" y="0" width="100%" height="100%" fill="url(#watermark)" fill-opacity="1" class="watermarklayer"></rect> <g data-v-0dd9719b="" fill="#333" class="icon-text-wrapper icon-svg-group iconsvg" transform="translate(60.13500213685172,94.8550033569336)"><g class="iconsvg-imagesvg" transform="translate(0,0)"><g><rect fill="#333" fill-opacity="0" stroke-width="2" x="0" y="0" width="60" height="60.28999487535044" class="image-rect"></rect> <svg x="0" y="0" width="60" height="60.28999487535044" filtersec="colorsb3664580119" class="image-svg-svg primary" style="overflow: visible;"><svg xmlns="http://www.w3.org/2000/svg" viewBox="0.018661022186279297 -0.009946723468601704 179.8932647705078 180.7624053955078"><path d="M15.43 105.51c16.12.37 32-1.46 47.3-6.76a105.2 105.2 0 0 0 46.75-32.14c12.66-15 21-32.28 27.32-50.65.62-1.8 1.13-1.93 2.6-.92 20.47 14.11 33.71 33.17 38.6 57.57a87.55 87.55 0 0 1-9.69 61.75 88.33 88.33 0 0 1-49.09 41.25 87 87 0 0 1-51.94 2.19c-26.11-6.8-45.36-22.45-58.05-46.17a88.66 88.66 0 0 1-8.36-23.9c-.35-1.69-.07-2.38 2-2.28 4.13.21 8.36.06 12.56.06zM32 126.94a53.74 53.74 0 0 0 9.62 12c16.79 15.79 36.62 22.51 59.45 18.54 23-4 39.61-17 50-37.76 6.37-12.75 8-26.35 5.85-40.38a66.56 66.56 0 0 0-10.17-26.29c-.82-1.26-1.31-1.49-2.09 0a147.68 147.68 0 0 1-24.14 34.06 125.62 125.62 0 0 1-50.7 32.66A139.13 139.13 0 0 1 32 126.94z" fill="#1f65b0"></path><path d="M37.35 85.18a178.88 178.88 0 0 1-35.26-3.79c-1.71-.34-2.29-1-2-2.88a88.93 88.93 0 0 1 23.76-50.08A88 88 0 0 1 77.26.87a89.27 89.27 0 0 1 55.56 10.19c1 .56 1.54 1 1.05 2.3-6.59 16.64-15.19 32-27.94 44.81C91.39 72.73 73.84 81.21 53.46 84a118.5 118.5 0 0 1-16.11 1.18z" fill="#fb6d02"></path></svg></svg> <!----></g></g> <g transform="translate(67,2.1487483978271484)"><g data-gra="path-name" fill-rule="" class="tp-name iconsvg-namesvg" transform="translate(0,0)"><g transform="scale(1)"><g><path d="M37.21-17.14Q37.21-16.74 36.92-16.38 36.63-16.02 36.09-16.02L36.09-16.02 20.16-16.02Q22.59-9.9 26.28-6.17 29.97-2.43 35.95 0.09L35.95 0.09Q36.59 0.36 36.59 1.03L36.59 1.03Q36.59 1.26 36.49 1.53L36.49 1.53Q36.18 2.21 35.5 2.21L35.5 2.21Q35.23 2.21 34.96 2.07L34.96 2.07Q28.75-0.54 24.52-4.93 20.29-9.31 17.73-16.02L17.73-16.02 11.07-16.02 11.07 0.49 19.75-3.38Q19.93-3.46 20.2-3.46L20.2-3.46Q20.56-3.46 20.86-3.24 21.15-3.01 21.24-2.75L21.24-2.75Q21.33-2.48 21.33-2.29L21.33-2.29Q21.33-1.57 20.61-1.26L20.61-1.26 9.36 3.73Q9.18 3.82 8.91 3.82L8.91 3.82Q8.55 3.82 8.26 3.6 7.96 3.38 7.88 3.1L7.88 3.1Q7.79 2.83 7.79 2.65L7.79 2.65Q7.79 1.93 8.5 1.62L8.5 1.62 8.82 1.48 8.82-16.02 3.15-16.02Q2.61-16.02 2.32-16.38 2.02-16.74 2.02-17.14L2.02-17.14Q2.02-17.55 2.32-17.91 2.61-18.27 3.15-18.27L3.15-18.27 8.82-18.27 8.82-34.6Q8.82-35.14 9.18-35.44 9.54-35.73 9.95-35.73L9.95-35.73Q10.35-35.73 10.71-35.44 11.07-35.14 11.07-34.6L11.07-34.6 11.07-18.27 36.09-18.27Q36.63-18.27 36.92-17.91 37.21-17.55 37.21-17.14L37.21-17.14ZM15.75-22.18Q15.57-22.09 15.3-22.09L15.3-22.09Q14.63-22.09 14.26-22.81L14.26-22.81Q14.17-23.09 14.17-23.22L14.17-23.22Q14.17-23.94 14.89-24.25L14.89-24.25Q22.86-27.54 31.45-33.16L31.45-33.16Q31.68-33.34 31.99-33.34L31.99-33.34Q32.27-33.34 32.53-33.16 32.8-32.98 32.94-32.71L32.94-32.71Q33.12-32.35 33.12-32.09L33.12-32.09Q33.12-31.54 32.58-31.18L32.58-31.18Q24.07-25.61 15.75-22.18L15.75-22.18ZM63-10.98L63-34.92Q63-35.46 63.36-35.75 63.72-36.05 64.13-36.05L64.13-36.05Q64.53-36.05 64.89-35.75 65.25-35.46 65.25-34.92L65.25-34.92 65.25-10.98Q65.25-10.44 64.89-10.15 64.53-9.86 64.13-9.86L64.13-9.86Q63.72-9.86 63.36-10.15 63-10.44 63-10.98L63-10.98ZM44.64-33.21Q44.95-33.7 45.49-33.7L45.49-33.7Q45.81-33.7 46.17-33.44L46.17-33.44 51.88-28.8Q52.42-28.39 52.42-27.9L52.42-27.9Q52.42-27.54 52.16-27.18L52.16-27.18Q51.75-26.77 51.25-26.77L51.25-26.77Q50.94-26.77 50.58-27.04L50.58-27.04 44.95-31.63Q44.37-32.04 44.37-32.53L44.37-32.53Q44.37-32.89 44.64-33.21L44.64-33.21ZM76.28-16.61Q76.41-16.34 76.41-16.06L76.41-16.06Q76.41-15.75 76.25-15.48 76.09-15.21 75.82-15.12L75.82-15.12Q75.56-14.98 75.19-14.98L75.19-14.98Q74.52-14.98 74.3-15.57L74.3-15.57 68.36-28.48Q68.27-28.84 68.27-28.98L68.27-28.98Q68.27-29.29 68.44-29.59 68.63-29.88 68.85-30.02L68.85-30.02Q69.08-30.15 69.39-30.15L69.39-30.15Q70.06-30.15 70.38-29.52L70.38-29.52 76.28-16.61ZM52.52-14.13Q55.44-21.78 57.69-29.07L57.69-29.07Q57.83-29.43 58.12-29.63 58.41-29.83 58.72-29.83L58.72-29.83Q58.91-29.83 59.17-29.74L59.17-29.74Q59.45-29.65 59.67-29.36 59.89-29.07 59.89-28.66L59.89-28.66Q59.89-28.44 59.85-28.3L59.85-28.3Q57.6-21.06 54.63-13.37L54.63-13.37Q54.41-12.64 53.59-12.64L53.59-12.64Q53.33-12.64 53.19-12.69L53.19-12.69Q52.92-12.78 52.67-13.05 52.42-13.32 52.42-13.68L52.42-13.68Q52.42-13.86 52.52-14.13L52.52-14.13ZM42.08-23.18Q42.34-23.58 42.88-23.58L42.88-23.58Q43.29-23.58 43.65-23.27L43.65-23.27 49.5-18.27Q49.95-17.95 49.95-17.46L49.95-17.46Q49.95-17.05 49.63-16.65L49.63-16.65Q49.23-16.25 48.83-16.25L48.83-16.25Q48.42-16.25 48.06-16.56L48.06-16.56 42.21-21.6Q41.8-21.96 41.8-22.41L41.8-22.41Q41.8-22.86 42.08-23.18L42.08-23.18ZM50.53 3.33Q50.4 3.15 50.4 2.83L50.4 2.83Q50.4 2.16 51.08 1.84L51.08 1.84Q58.45-1.3 63.34-5.11 68.22-8.91 71.5-14.49L71.5-14.49Q71.78-14.94 72.31-14.94L72.31-14.94Q72.81-14.94 73.08-14.67L73.08-14.67Q73.44-14.4 73.44-13.86L73.44-13.86Q73.44-13.46 73.26-13.14L73.26-13.14Q69.97-7.51 64.69-3.4 59.4 0.72 52.06 3.87L52.06 3.87Q51.88 3.96 51.57 3.96L51.57 3.96Q50.85 3.96 50.53 3.33L50.53 3.33ZM43.06 2.07L48.02-10.48Q48.24-11.16 49.05-11.16L49.05-11.16Q49.19-11.16 49.45-11.07L49.45-11.07Q50.13-10.66 50.13-10.04L50.13-10.04Q50.13-9.95 50.04-9.58L50.04-9.58 45.09 2.97Q44.87 3.65 44.05 3.65L44.05 3.65Q43.92 3.65 43.65 3.55L43.65 3.55Q42.98 3.15 42.98 2.52L42.98 2.52Q42.98 2.43 43.06 2.07L43.06 2.07ZM91.75-30.06Q89.23-30.06 88-28.84 86.76-27.63 86.76-25.79L86.76-25.79 86.76-15.12Q86.76-10.75 85.81-5.35 84.87 0.04 82.98 3.24L82.98 3.24Q82.67 3.78 81.99 3.78L81.99 3.78Q81.67 3.78 81.41 3.65L81.41 3.65Q80.86 3.33 80.86 2.75L80.86 2.75Q80.86 2.52 81.05 2.16L81.05 2.16Q82.98-1.35 83.75-5.74 84.51-10.13 84.51-15.43L84.51-15.43 84.51-26.23Q84.51-29.02 86.27-30.67 88.02-32.31 91.31-32.31L91.31-32.31 99.18-32.31 99.18-35.32Q99.18-35.87 99.54-36.16 99.9-36.45 100.31-36.45L100.31-36.45Q100.71-36.45 101.07-36.16 101.43-35.87 101.43-35.32L101.43-35.32 101.43-32.31 114.8-32.31Q115.34-32.31 115.63-31.95 115.92-31.59 115.92-31.18L115.92-31.18Q115.92-30.78 115.63-30.42 115.34-30.06 114.8-30.06L114.8-30.06 91.75-30.06ZM114.8-17.46Q115.34-17.46 115.63-17.1 115.92-16.74 115.92-16.34L115.92-16.34Q115.92-15.93 115.63-15.57 115.34-15.21 114.8-15.21L114.8-15.21 101.2-15.21Q98.64-15.21 97.45-16.47 96.25-17.73 96.25-19.75L96.25-19.75 96.25-22 95.13-20.56Q94.72-20.11 94.23-20.11L94.23-20.11Q93.83-20.11 93.6-20.34L93.6-20.34Q93.11-20.75 93.11-21.29L93.11-21.29Q93.11-21.6 93.38-21.91L93.38-21.91Q94.86-23.54 95.89-25.22 96.93-26.91 97.83-29.11L97.83-29.11Q98.06-29.65 98.78-29.65L98.78-29.65Q99.09-29.65 99.31-29.52L99.31-29.52Q99.86-29.11 99.86-28.48L99.86-28.48Q99.86-28.21 99.72-27.95L99.72-27.95 99.59-27.58 105.08-27.58 104.72-28.08Q104.49-28.35 104.49-28.71L104.49-28.71Q104.49-29.2 104.94-29.65L104.94-29.65Q105.3-29.92 105.66-29.92L105.66-29.92Q106.2-29.92 106.52-29.47L106.52-29.47 107.5-28.13Q107.64-27.95 107.73-27.58L107.73-27.58 113.89-27.58Q114.44-27.58 114.73-27.22 115.02-26.86 115.02-26.46L115.02-26.46Q115.02-26.05 114.73-25.7 114.44-25.33 113.89-25.33L113.89-25.33 107.28-25.33 107.28-24.25 113.17-24.25Q113.72-24.25 114.01-23.89 114.3-23.54 114.3-23.13L114.3-23.13Q114.3-22.72 114.01-22.36 113.72-22 113.17-22L113.17-22 107.28-22 107.28-20.88 113.17-20.88Q113.72-20.88 114.01-20.52 114.3-20.16 114.3-19.75L114.3-19.75Q114.3-19.35 114.01-18.99 113.72-18.63 113.17-18.63L113.17-18.63 107.28-18.63 107.28-17.46 114.8-17.46ZM89.01-20.29Q88.69-19.8 88.06-19.8L88.06-19.8Q87.8-19.8 87.53-19.89L87.53-19.89Q87.3-19.98 87.1-20.27 86.89-20.56 86.89-20.88L86.89-20.88Q86.89-21.2 87.08-21.42L87.08-21.42Q90.45-25.43 91.94-29.07L91.94-29.07Q92.16-29.61 92.88-29.61L92.88-29.61Q93.19-29.61 93.42-29.47L93.42-29.47Q93.96-29.07 93.96-28.44L93.96-28.44Q93.96-28.17 93.83-27.9L93.83-27.9Q93.28-26.64 92.39-25.02L92.39-25.02Q92.83-24.7 92.83-24.12L92.83-24.12 92.83-15.21Q92.83-14.67 92.47-14.38 92.11-14.08 91.71-14.08L91.71-14.08Q91.31-14.08 90.94-14.38 90.58-14.67 90.58-15.21L90.58-15.21 90.58-22.32Q90.31-21.91 89.01-20.29L89.01-20.29ZM105.03-24.25L105.03-25.33 98.5-25.33 98.5-24.25 98.59-24.25 105.03-24.25ZM105.03-20.88L105.03-22 98.59-22 98.5-22 98.5-20.88 98.59-20.88 105.03-20.88ZM98.78-18.63Q99.27-17.46 101.66-17.46L101.66-17.46 105.03-17.46 105.03-18.63 98.78-18.63ZM109.22-5.67Q111.6-5.67 112.86-4.59 114.12-3.51 114.12-1.53L114.12-1.53Q114.12-1.26 114.03-0.54L114.03-0.54Q113.67 1.98 112.5 3.13 111.33 4.27 108.77 4.46L108.77 4.46Q108.27 4.5 107.93 4.12 107.59 3.73 107.59 3.33L107.59 3.33Q107.59 2.92 107.89 2.59 108.18 2.25 108.72 2.21L108.72 2.21Q110.07 2.11 110.81 1.44 111.56 0.77 111.73-0.58L111.73-0.58Q111.78-0.85 111.78-1.3L111.78-1.3Q111.78-2.43 111.04-2.92 110.3-3.42 108.77-3.42L108.77-3.42 95.72-3.42Q93.69-3.42 92.45-4.7 91.22-5.98 91.22-8.05L91.22-8.05 91.22-8.64Q91.22-10.75 92.45-12.01 93.69-13.28 95.72-13.28L95.72-13.28 99.67-13.28 100.13-14.45Q100.39-15.07 101.11-15.07L101.11-15.07Q101.34-15.07 101.61-14.98L101.61-14.98Q101.88-14.89 102.11-14.6 102.33-14.31 102.33-13.95L102.33-13.95Q102.33-13.81 102.24-13.54L102.24-13.54 102.15-13.28 107.91-13.28Q109.62-13.28 110.56-12.38 111.51-11.47 111.51-9.9L111.51-9.9Q111.51-8.37 110.9-7.49 110.3-6.61 108.67-6.21L108.67-6.21Q108.18-6.08 107.75-6.32 107.33-6.57 107.23-6.97L107.23-6.97Q107.14-7.38 107.35-7.81 107.55-8.23 108.09-8.37L108.09-8.37Q109.22-8.69 109.26-9.45L109.26-9.45Q109.35-10.3 108.92-10.66 108.5-11.03 107.46-11.03L107.46-11.03 96.16-11.03Q93.47-11.03 93.47-8.5L93.47-8.5 93.47-8.19Q93.47-5.67 96.16-5.67L96.16-5.67 109.22-5.67ZM101.11-10.17L103.36-8.37Q103.81-7.96 103.81-7.51L103.81-7.51Q103.81-7.15 103.59-6.84L103.59-6.84Q103.28-6.3 102.69-6.3L102.69-6.3Q102.28-6.3 101.97-6.57L101.97-6.57 99.72-8.37Q99.27-8.78 99.27-9.22L99.27-9.22Q99.27-9.58 99.5-9.9L99.5-9.9Q99.81-10.44 100.39-10.44L100.39-10.44Q100.8-10.44 101.11-10.17L101.11-10.17ZM109.08-0.72Q109.08-0.32 108.79 0.04 108.5 0.4 107.95 0.4L107.95 0.4 88.38 0.4Q87.84 0.4 87.55 0.04 87.25-0.32 87.25-0.72L87.25-0.72Q87.25-1.13 87.55-1.48 87.84-1.84 88.38-1.84L88.38-1.84 107.95-1.84Q108.5-1.84 108.79-1.48 109.08-1.13 109.08-0.72L109.08-0.72ZM126.14-30.2L124.38-34.42Q124.29-34.7 124.29-34.88L124.29-34.88Q124.29-35.19 124.49-35.48 124.69-35.77 124.97-35.87L124.97-35.87Q125.23-35.95 125.46-35.95L125.46-35.95Q126.14-35.95 126.45-35.23L126.45-35.23 128.25-31Q128.38-30.69 128.38-30.42L128.38-30.42Q128.38-29.74 127.66-29.43L127.66-29.43Q127.39-29.34 127.22-29.34L127.22-29.34Q126.45-29.34 126.14-30.2L126.14-30.2ZM135.9-8.55Q135.5-8.55 135.13-8.84 134.78-9.13 134.78-9.67L134.78-9.67 134.78-26.86Q134.78-29.43 136.44-31.32 138.1-33.21 141.53-33.21L141.53-33.21 145.57-33.21Q149-33.21 150.66-31.32 152.32-29.43 152.32-26.86L152.32-26.86 152.32-9.76Q152.32-9.22 151.97-8.93 151.6-8.64 151.2-8.64L151.2-8.64Q150.8-8.64 150.44-8.93 150.07-9.22 150.07-9.76L150.07-9.76 150.07-26.64Q150.07-28.39 149-29.68 147.91-30.96 145.13-30.96L145.13-30.96 141.97-30.96Q139.19-30.96 138.1-29.68 137.03-28.39 137.03-26.64L137.03-26.64 137.03-9.67Q137.03-9.13 136.66-8.84 136.31-8.55 135.9-8.55L135.9-8.55ZM154.17-1.26Q154.44-1.13 154.6-0.85 154.75-0.58 154.75-0.32L154.75-0.32Q154.75-0.18 154.66 0.09L154.66 0.09Q154.22 1.44 152.82 2.14 151.43 2.83 149.31 2.83L149.31 2.83 148 2.83Q145.71 2.83 144.65 1.28 143.59-0.27 143.59-2.97L143.59-2.97 143.59-10.8 143.59-10.84Q142.92-7.74 141.64-5.38 140.35-3.01 138.26-0.88 136.17 1.26 132.66 4L132.66 4Q132.3 4.32 131.85 4.32L131.85 4.32Q131.35 4.32 131 3.87L131 3.87Q130.72 3.6 130.72 3.19L130.72 3.19Q130.72 2.7 131.26 2.29L131.26 2.29Q136.71-1.98 138.85-4.86 140.99-7.74 141.68-12.22 142.38-16.7 142.38-26.55L142.38-26.55Q142.38-27.09 142.74-27.38 143.1-27.68 143.5-27.68L143.5-27.68Q143.91-27.68 144.27-27.38 144.63-27.09 144.63-26.55L144.63-26.55Q144.63-21.11 144.43-17.53 144.22-13.95 143.69-11.25L143.69-11.25Q143.82-11.56 144.11-11.74 144.41-11.92 144.72-11.92L144.72-11.92Q145.13-11.92 145.49-11.63 145.84-11.34 145.84-10.8L145.84-10.8 145.84-4.32Q145.84-2.38 146-1.42 146.16-0.45 146.72 0.07 147.28 0.58 148.54 0.58L148.54 0.58Q150.39 0.58 151.34 0.25 152.28-0.09 152.69-0.77L152.69-0.77Q153.09-1.4 153.68-1.4L153.68-1.4Q153.99-1.4 154.17-1.26L154.17-1.26ZM131.72-11.25L127.58-15.43 127.58 3.46Q127.58 4 127.22 4.3 126.86 4.59 126.45 4.59L126.45 4.59Q126.05 4.59 125.69 4.3 125.33 4 125.33 3.46L125.33 3.46 125.33-13.86Q123.57-11.43 121.68-9.4L121.68-9.4Q121.28-8.96 120.78-8.96L120.78-8.96Q120.33-8.96 119.97-9.31L119.97-9.31Q119.52-9.63 119.52-10.3L119.52-10.3Q119.52-10.66 119.75-10.98L119.75-10.98Q126-17.55 128.25-23.36L128.25-23.36Q128.66-24.39 128.66-24.79L128.66-24.79Q128.66-25.11 128.38-25.24 128.12-25.38 127.48-25.38L127.48-25.38 121.55-25.38Q121-25.38 120.71-25.74 120.42-26.1 120.42-26.5L120.42-26.5Q120.42-26.91 120.71-27.27 121-27.63 121.55-27.63L121.55-27.63 128.7-27.63Q129.78-27.63 130.34-26.98 130.91-26.32 130.91-25.2L130.91-25.2Q130.91-24.03 130.41-22.86L130.41-22.86Q129.38-20.34 128.03-18.09L128.03-18.09 133.25-13Q133.69-12.55 133.69-12.06L133.69-12.06Q133.69-11.7 133.43-11.34L133.43-11.34Q132.97-10.89 132.48-10.89L132.48-10.89Q132.07-10.89 131.72-11.25L131.72-11.25Z" transform="translate(-2.0199999809265137, 36.45000076293945)"></path></g> <!----> <!----> <!----> <!----> <!----> <!----> <!----></g></g> <g data-gra="path-slogan" fill-rule="" class="tp-slogan iconsvg-slogansvg" fill="#333" transform="translate(5,47.040000915527344)"><rect x="0" height="1" y="3.9750003814697266" width="9.044994354248047"></rect> <rect height="1" y="3.9750003814697266" width="9.044994354248047" x="133.68500137329102"></rect> <g transform="translate(12.044994354248047,0)"><g transform="scale(1)"><path d="M8.06-6.05L8.06-6.05L6.94-6.05Q6.52-7.78 4.55-7.83L4.55-7.83Q1.83-7.69 1.73-4.36L1.73-4.36Q1.73-0.80 4.59-0.80L4.59-0.80Q6.56-0.84 7.03-3.19L7.03-3.19L8.16-3.19Q7.64 0.05 4.36 0.14L4.36 0.14Q0.61 0 0.52-4.31L0.52-4.31Q0.70-8.63 4.55-8.81L4.55-8.81Q7.59-8.72 8.06-6.05ZM10.69-5.06L15.19-5.06L15.19-8.58L16.36-8.58L16.36 0L15.19 0L15.19-3.98L10.69-3.98L10.69 0L9.52 0L9.52-8.58L10.69-8.58L10.69-5.06ZM23.81 0L22.97-2.48L19.50-2.48L18.61 0L17.44 0L20.67-8.58L21.98-8.58L25.08 0L23.81 0ZM21.23-7.31L19.88-3.52L22.55-3.52L21.28-7.31L21.23-7.31ZM27.52-8.58L31.83-1.64L31.83-8.58L32.95-8.58L32.95 0L31.64 0L27.28-6.94L27.23-6.94L27.23 0L26.11 0L26.11-8.58L27.52-8.58ZM41.16-3.61L38.53-3.61L38.53-4.59L42.28-4.59L42.28 0L41.53 0L41.25-1.08Q40.27 0.09 38.44 0.14L38.44 0.14Q36.70 0.14 35.77-0.75L35.77-0.75Q34.36-2.06 34.41-4.36L34.41-4.36Q34.73-8.63 38.48-8.81L38.48-8.81Q41.67-8.63 42.14-6L42.14-6L41.02-6Q40.55-7.78 38.44-7.83L38.44-7.83Q35.77-7.64 35.63-4.31L35.63-4.31Q35.63-0.75 38.48-0.75L38.48-0.75Q39.52-0.75 40.27-1.31L40.27-1.31Q41.20-2.06 41.16-3.61L41.16-3.61ZM50.34-6.09L50.34-6.09L49.27-6.09Q49.17-7.73 47.11-7.83L47.11-7.83Q45.19-7.78 45.19-6.33L45.19-6.33Q45.19-5.39 46.22-5.25L46.22-5.25L48.66-4.69Q50.58-4.22 50.58-2.34L50.58-2.34Q50.53 0.05 47.20 0.14L47.20 0.14Q45.38 0.14 44.63-0.61L44.63-0.61Q43.69-1.31 43.73-2.77L43.73-2.77L44.86-2.77Q44.91-0.80 47.20-0.75L47.20-0.75Q49.45-0.80 49.50-2.20L49.50-2.20Q49.69-3.38 47.63-3.75L47.63-3.75L45.84-4.13Q44.02-4.64 44.02-6.19L44.02-6.19Q44.16-8.72 47.02-8.81L47.02-8.81Q50.25-8.81 50.34-6.09ZM53.20-5.06L57.70-5.06L57.70-8.58L58.88-8.58L58.88 0L57.70 0L57.70-3.98L53.20-3.98L53.20 0L52.03 0L52.03-8.58L53.20-8.58L53.20-5.06ZM66.33 0L65.48-2.48L62.02-2.48L61.13 0L59.95 0L63.19-8.58L64.50-8.58L67.59 0L66.33 0ZM63.75-7.31L62.39-3.52L65.06-3.52L63.80-7.31L63.75-7.31ZM78.89-8.58L75.66-3.47L75.66 0L74.48 0L74.48-3.47L71.25-8.58L72.61-8.58L75.05-4.45L77.53-8.58L78.89-8.58ZM80.11-8.58L81.28-8.58L81.28 0L80.11 0L80.11-8.58ZM84.66-8.58L88.97-1.64L88.97-8.58L90.09-8.58L90.09 0L88.78 0L84.42-6.94L84.38-6.94L84.38 0L83.25 0L83.25-8.58L84.66-8.58ZM98.30-3.61L95.67-3.61L95.67-4.59L99.42-4.59L99.42 0L98.67 0L98.39-1.08Q97.41 0.09 95.58 0.14L95.58 0.14Q93.84 0.14 92.91-0.75L92.91-0.75Q91.50-2.06 91.55-4.36L91.55-4.36Q91.88-8.63 95.63-8.81L95.63-8.81Q98.81-8.63 99.28-6L99.28-6L98.16-6Q97.69-7.78 95.58-7.83L95.58-7.83Q92.91-7.64 92.77-4.31L92.77-4.31Q92.77-0.75 95.63-0.75L95.63-0.75Q96.66-0.75 97.41-1.31L97.41-1.31Q98.34-2.06 98.30-3.61L98.30-3.61ZM107.48-6.09L107.48-6.09L106.41-6.09Q106.31-7.73 104.25-7.83L104.25-7.83Q102.33-7.78 102.33-6.33L102.33-6.33Q102.33-5.39 103.36-5.25L103.36-5.25L105.80-4.69Q107.72-4.22 107.72-2.34L107.72-2.34Q107.67 0.05 104.34 0.14L104.34 0.14Q102.52 0.14 101.77-0.61L101.77-0.61Q100.83-1.31 100.88-2.77L100.88-2.77L102-2.77Q102.05-0.80 104.34-0.75L104.34-0.75Q106.59-0.80 106.64-2.20L106.64-2.20Q106.83-3.38 104.77-3.75L104.77-3.75L102.98-4.13Q101.16-4.64 101.16-6.19L101.16-6.19Q101.30-8.72 104.16-8.81L104.16-8.81Q107.39-8.81 107.48-6.09ZM110.34-5.06L114.84-5.06L114.84-8.58L116.02-8.58L116.02 0L114.84 0L114.84-3.98L110.34-3.98L110.34 0L109.17 0L109.17-8.58L110.34-8.58L110.34-5.06ZM117.98-8.58L119.16-8.58L119.16 0L117.98 0L117.98-8.58Z" transform="translate(-0.515625, 8.8125)"></path></g></g></g></g></g><defs v-gra="od"></defs></svg>